<svg xmlns="http://www.w3.org/2000/svg">
<symbol id="icon-apple" viewBox="0 0 40 48">
<path d="M28.8731 0.0525276C26.594 0.31087 23.3684 2.28417 21.7669 4.39488C20.8429 5.60414 20.2997 6.75844 19.8293 8.49538L19.5941 9.36385L19.6053 10.2873C19.6165 10.793 19.6445 11.2657 19.6725 11.3426C19.7453 11.524 19.8853 11.5515 20.8709 11.557C21.6885 11.5625 21.7389 11.557 22.4389 11.3536C24.3092 10.8205 25.6812 10.018 26.6556 8.88015C26.8908 8.59982 27.2435 8.22605 27.4283 8.03916C28.0443 7.44552 28.8339 6.12633 29.2707 4.98302C29.7075 3.83422 29.9035 2.76787 29.9595 1.2508L29.9931 0.27789L29.8475 0.134977C29.6851 -0.0244255 29.5955 -0.0299221 28.8731 0.0525276Z"/>
<path d="M28.3523 11.4141C27.2435 11.4691 24.2588 12.2826 22.114 13.1071C20.8148 13.6073 20.8148 13.6073 20.5572 13.6512C20.1093 13.7227 19.0117 13.4094 17.1245 12.6618C16.1221 12.2716 15.0918 11.9748 13.5686 11.634C12.9302 11.4965 11.8718 11.4801 11.4126 11.6065C11.2279 11.656 10.6455 11.7714 10.1191 11.8593C8.9879 12.0572 8.34952 12.2496 7.49834 12.6618C4.928 13.8931 3.17524 15.663 1.78647 18.4333C1.17048 19.6536 0.716891 20.8463 0.380899 22.1161C-0.11749 24.0014 -0.12869 27.6182 0.358499 29.8114C0.414498 30.0807 0.464897 30.3995 0.464897 30.5259C0.464897 30.7898 0.515296 30.9877 0.985685 32.8071C1.42248 34.489 1.37768 34.3516 2.21206 36.4074C3.38243 39.2931 3.75202 39.9307 6.14317 43.1682C7.12315 44.4929 7.62153 45.0976 8.34392 45.8176C9.0999 46.5762 9.71029 47.0159 10.5727 47.4336C11.547 47.9009 11.9726 48.0053 12.8686 47.9998C14.0166 47.9998 14.9406 47.7689 16.6989 47.0434C17.8077 46.5872 17.8805 46.5652 19.8965 46.1584C20.5012 46.032 21.0612 46.043 21.9124 46.1804C22.2036 46.2244 22.6404 46.2903 22.8756 46.3233C23.3516 46.3893 23.8332 46.5432 25.0763 47.0324C26.5771 47.626 27.6355 47.8899 28.7443 47.9558C30.357 48.0548 31.9138 47.3512 33.5769 45.7846C35.2737 44.1741 36.8585 41.97 38.46 38.9963C38.8912 38.1938 39.58 36.5503 39.6976 36.0556C39.748 35.8577 39.832 35.6103 39.8936 35.5114C39.9496 35.4125 40 35.2751 40 35.2146C40 35.0167 39.5912 34.7034 38.8688 34.3461C37.5081 33.659 36.1697 32.4828 35.2681 31.1581C34.6241 30.2071 33.9745 28.7835 33.8121 27.9425C33.5377 26.5574 33.4593 25.0403 33.6161 23.9849C33.6553 23.7101 33.7953 23.133 33.9297 22.6932C34.5065 20.7859 34.9041 20.0219 35.8057 19.0764C36.0801 18.7961 36.3041 18.5378 36.3041 18.5158C36.3041 18.4223 37.676 17.2955 38.012 17.1141C38.1968 17.0097 38.432 16.8503 38.5328 16.7513C38.8408 16.4545 38.796 16.3391 38.0232 15.4486C36.9873 14.2559 35.6825 13.2775 34.1481 12.5464C33.1906 12.0902 32.5298 11.8648 31.6058 11.6779C30.6594 11.4801 29.2482 11.3646 28.3523 11.4141Z"/>
</symbol>
</svg>
